<?xml version="1.0" encoding="UTF-8" standalone="no" ?>
<!DOCTYPE svg PUBLIC "-//W3C//DTD SVG 1.1//EN" "http://www.w3.org/Graphics/SVG/1.1/DTD/svg11.dtd">
<svg xmlns="http://www.w3.org/2000/svg" xmlns:xlink="http://www.w3.org/1999/xlink" version="1.1" width="360" height="360" viewBox="0 0 360 360" xml:space="preserve">
<desc>Created with Fabric.js 4.6.0</desc>
<defs>
</defs>
<g transform="matrix(0.62 0 0 0.53 181.51 51.01)" id="WC8fc4KWMex-7RtUwgKCx"  >
<path style="stroke: rgb(0,0,0); stroke-width: 0; stroke-dasharray: none; stroke-linecap: butt; stroke-dashoffset: 0; stroke-linejoin: miter; stroke-miterlimit: 4; fill: rgb(255,255,255); fill-rule: nonzero; opacity: 1;" vector-effect="non-scaling-stroke"  transform=" translate(-170.05, -106.63)" d="M 315.96673 9.00004 L 24.12743999999998 9.00004 C 20.29325999999998 8.97826 16.578789999999977 10.721630000000001 13.663569999999979 13.89774 C 10.748349999999979 17.07928 8.829129999999978 21.49219 8.252119999999978 26.33005 C 7.6793399999999785 31.16233 8.487209999999978 36.10368 10.534639999999978 40.23877 C 26.858819999999977 79.12661 37.77625999999998 121.32682 42.79781999999997 164.95936 C 44.51613999999997 175.96966 49.158209999999976 185.89071 55.942079999999976 193.04402 C 62.72561999999998 200.20263 71.23983999999997 204.16338 80.04535999999997 204.25599 L 260.05122 204.25599 C 268.83945 204.13613 277.33288 200.16456 284.09541 193.00594999999998 C 290.86188000000004 185.85278 295.48666000000003 175.94902 297.20137 164.96033999999997 C 302.25806 121.31663999999998 313.20931 79.12201999999998 329.56303 40.23974999999997 C 331.6105 36.10479999999997 332.41839000000004 31.163459999999972 331.84555 26.33102999999997 C 331.2685 21.49316999999997 329.34932 17.08039999999997 326.4341 13.89871999999997 C 323.51888 10.72261999999997 319.80441 8.979269999999971 315.97023 9.00101999999997 L 315.96673000000004 9.00003999999997 z" stroke-linecap="round" />
</g>
<g transform="matrix(0.62 0 0 0.53 180.83 308.99)" id="srpFAR0IJfHLoaXY3PY5D"  >
<path style="stroke: rgb(0,0,0); stroke-width: 0; stroke-dasharray: none; stroke-linecap: butt; stroke-dashoffset: 0; stroke-linejoin: miter; stroke-miterlimit: 4; fill: rgb(255,255,255); fill-rule: nonzero; opacity: 1;" vector-effect="non-scaling-stroke"  transform=" translate(-168.95, -593.38)" d="M 41.70126 535.04516 C 36.67882 578.6777 25.762259999999998 620.87791 9.43808 659.76575 C 7.390609999999999 663.9007 6.582719999999999 668.84204 7.1555599999999995 673.67447 C 7.732609999999999 678.51233 9.65179 682.9251 12.56701 686.1067800000001 C 15.48223 689.2828800000001 19.1967 691.02623 23.03088 691.0044800000001 L 314.87017000000003 691.0044800000001 C 318.70435000000003 691.02628 322.41882000000004 689.2828900000001 325.33404 686.1067800000001 C 328.24926 682.92524 330.16848 678.51233 330.74549 673.67447 C 331.31827000000004 668.8421900000001 330.5104 663.90084 328.46297000000004 659.76575 C 312.13879000000003 620.87791 301.22135000000003 578.6777000000001 296.19979000000006 535.04516 C 294.48147000000006 524.03486 289.83940000000007 514.1138100000001 283.0555300000001 506.9605 C 276.2719900000001 499.80189 267.7577700000001 495.84114 258.9522500000001 495.74853 L 78.9463900000001 495.74853 C 70.1409800000001 495.84115 61.6264300000001 499.80175 54.843110000000095 506.9605 C 48.05957000000009 514.1136700000001 43.417940000000094 524.03416 41.69885000000009 535.04516 L 41.70126000000009 535.04516 z" stroke-linecap="round" />
</g>
<g transform="matrix(0.62 0 0 0.53 180.83 179.63)" id="o3S6Sp6iZCyX59FBzsG-w"  >
<path style="stroke: rgb(0,0,0); stroke-width: 0; stroke-dasharray: none; stroke-linecap: butt; stroke-dashoffset: 0; stroke-linejoin: miter; stroke-miterlimit: 4; fill: rgb(255,255,255); fill-rule: nonzero; opacity: 1;" vector-effect="non-scaling-stroke"  transform=" translate(-168.96, -349.3)" d="M 77.03494 446.92932 L 260.87072 446.92932 C 267.58587 446.94021000000004 274.00622 443.43174 278.62729 437.22110000000004 C 283.24802 431.01045000000005 285.65452 422.64810000000006 285.28685 414.10011000000003 C 283.85063 393.11437 283.85063 371.51358000000005 283.85063 349.30192 C 283.85063 327.09025999999994 283.85063 305.48947 285.19285 284.37820999999997 C 285.53053 275.87386999999995 283.12404000000004 267.56534999999997 278.52902 261.38831999999996 C 273.934 255.20486999999997 267.55249 251.69640999999996 260.87094 251.67465999999996 L 77.03516000000002 251.67465999999996 C 70.33708000000001 251.66376999999997 63.92920000000002 255.16135999999997 59.31361000000002 261.34480999999994 C 54.698020000000014 267.52825999999993 52.27784000000002 275.85225999999994 52.61980000000002 284.3793299999999 C 54.05602000000002 305.49058999999994 54.05602000000002 327.0913799999999 54.05602000000002 349.3030399999999 C 54.05602000000002 371.5146999999999 54.05602000000002 393.1154899999999 52.71380000000002 414.1012299999999 C 52.34619000000002 422.6273199999999 54.74420000000002 430.9684799999999 59.34349000000002 437.1789899999999 C 63.938510000000015 443.3841999999999 70.33753000000002 446.9091099999999 77.03549000000001 446.9308699999999 L 77.03494 446.9293399999999 z" stroke-linecap="round" />
</g>
</svg>