<svg width="340" height="700" xmlns="http://www.w3.org/2000/svg" version="1.1">
 <g id="Layer_1">
  <title>Layer 1</title>
  <g stroke="null" id="svg_1">
   <path stroke="null" d="m315.96673,9.00004l-291.83929,0c-3.83418,-0.02178 -7.54865,1.72159 -10.46387,4.8977c-2.91522,3.18154 -4.83444,7.59445 -5.41145,12.43231c-0.57278,4.83228 0.23509,9.77363 2.28252,13.90872c16.32418,38.88784 27.24162,81.08805 32.26318,124.72059c1.71832,11.0103 6.36039,20.93135 13.14426,28.08466c6.78354,7.15861 15.29776,11.11936 24.10328,11.21197l180.00586,0c8.78823,-0.11986 17.28166,-4.09143 24.04419,-11.25004c6.76647,-7.15317 11.39125,-17.05693 13.10596,-28.04561c5.05669,-43.6437 16.00794,-85.83832 32.36166,-124.72059c2.04747,-4.13495 2.85536,-9.07629 2.28252,-13.90872c-0.57705,-4.83786 -2.49623,-9.25063 -5.41145,-12.43231c-2.91522,-3.1761 -6.62969,-4.91945 -10.46387,-4.8977l-0.0035,-0.00098z" id="svg_1"/>
   <path stroke="null" d="m41.70126,535.04516c-5.02244,43.63254 -15.939,85.83275 -32.26318,124.72059c-2.04747,4.13495 -2.85536,9.07629 -2.28252,13.90872c0.57705,4.83786 2.49623,9.25063 5.41145,12.43231c2.91522,3.1761 6.62969,4.91945 10.46387,4.8977l291.83929,0c3.83418,0.0218 7.54865,-1.72159 10.46387,-4.8977c2.91522,-3.18154 4.83444,-7.59445 5.41145,-12.43231c0.57278,-4.83228 -0.23509,-9.77363 -2.28252,-13.90872c-16.32418,-38.88784 -27.24162,-81.08805 -32.26318,-124.72059c-1.71832,-11.0103 -6.36039,-20.93135 -13.14426,-28.08466c-6.78354,-7.15861 -15.29776,-11.11936 -24.10328,-11.21197l-180.00586,0c-8.80541,0.09262 -17.31996,4.05322 -24.10328,11.21197c-6.78354,7.15317 -11.42517,17.07366 -13.14426,28.08466l0.00241,0z" id="svg_2"/>
   <path stroke="null" d="m77.03494,446.92932l183.83578,0c6.71515,0.01089 13.1355,-3.49758 17.75657,-9.70822c4.62073,-6.21065 7.02723,-14.573 6.65956,-23.12099c-1.43622,-20.98574 -1.43622,-42.58653 -1.43622,-64.79819s0,-43.81245 1.34222,-64.92371c0.33768,-8.50434 -2.06881,-16.81286 -6.66383,-22.98989c-4.59502,-6.18345 -10.97653,-9.69191 -17.65808,-9.71366l-183.83578,0c-6.69808,-0.01089 -13.10596,3.4867 -17.72155,9.67015s-7.03577,14.50745 -6.69381,23.03452c1.43622,21.11126 1.43622,42.71205 1.43622,64.92371s0,43.81245 -1.34222,64.79819c-0.36761,8.52609 2.0304,16.86725 6.62969,23.07776c4.59502,6.20521 10.99404,9.73012 17.692,9.75188l-0.00055,-0.00153z" id="svg_3"/>
  </g>
 </g>
</svg>