<?xml version="1.0" encoding="UTF-8"?>
<svg width="700pt" height="700pt" version="1.1" viewBox="0 0 700 700" xmlns="http://www.w3.org/2000/svg">
 <path d="m595 122.5v315c0.011719 4.1211-1.4297 8.1133-4.0703 11.273-2.6445 3.1641-6.3164 5.2891-10.375 6.0117-4.0547 0.71875-8.2383-0.015625-11.805-2.0781-1.1016-0.68359-119.73-67.707-218.75-67.707-99.207 0-217.63 67.023-218.75 67.691-3.5664 2.0586-7.7461 2.793-11.801 2.0742-4.0547-0.71484-7.7266-2.8398-10.371-6-2.6406-3.1562-4.0859-7.1484-4.0781-11.266v-315c-0.011719-4.1211 1.4297-8.1133 4.0703-11.273 2.6445-3.1641 6.3164-5.2891 10.375-6.0117 4.0547-0.71875 8.2383 0.015625 11.805 2.0781 1.1016 0.68359 119.73 67.707 218.75 67.707s217.65-67.023 218.75-67.691c3.5664-2.0586 7.7461-2.793 11.801-2.0742 4.0547 0.71484 7.7266 2.8398 10.371 6 2.6406 3.1562 4.0859 7.1484 4.0781 11.266z"/>
</svg>
