<?xml version="1.0" encoding="UTF-8"?>
<svg width="700pt" height="700pt" version="1.1" viewBox="0 0 700 700" xmlns="http://www.w3.org/2000/svg">
 <path d="m525 542.5h-350c-6.0977 0.042969-11.777-3.0898-14.992-8.2695-3.2148-5.1797-3.5-11.66-0.75781-17.105 34.594-74.199 51.941-155.27 50.75-237.12 1.1914-81.859-16.156-162.93-50.75-237.12-2.7422-5.4453-2.457-11.926 0.75781-17.105 3.2148-5.1797 8.8945-8.3125 14.992-8.2695h350c6.0977-0.042969 11.777 3.0898 14.992 8.2695 3.2148 5.1797 3.5 11.66 0.75781 17.105-34.594 74.199-51.941 155.27-50.75 237.12-1.1914 81.859 16.156 162.93 50.75 237.12 2.7422 5.4453 2.457 11.926-0.75781 17.105-3.2148 5.1797-8.8945 8.3125-14.992 8.2695zm-322.7-35h295.4c-28.887-72.336-43.391-149.61-42.699-227.5-0.69141-77.887 13.812-155.16 42.699-227.5h-295.4c28.887 72.336 43.391 149.61 42.699 227.5 0.69141 77.887-13.812 155.16-42.699 227.5z"/>
</svg>
