<?xml version="1.0" encoding="UTF-8"?>
<svg width="700pt" height="700pt" version="1.1" viewBox="0 0 700 700" xmlns="http://www.w3.org/2000/svg" xmlns:xlink="http://www.w3.org/1999/xlink">
 <defs>
  <symbol id="g" overflow="visible">
   <path d="m39.078-2.3281c-2.0117 1.043-4.1094 1.8281-6.2969 2.3594s-4.4648 0.79688-6.8281 0.79688c-7.0859 0-12.699-1.9766-16.844-5.9375-4.1367-3.957-6.2031-9.3281-6.2031-16.109 0-6.7891 2.0664-12.164 6.2031-16.125 4.1445-3.9688 9.7578-5.9531 16.844-5.9531 2.3633 0 4.6406 0.26562 6.8281 0.79688s4.2852 1.3242 6.2969 2.375v8.7969c-2.0312-1.3828-4.0391-2.3984-6.0156-3.0469-1.9688-0.64453-4.0469-0.96875-6.2344-0.96875-3.9062 0-6.9844 1.2578-9.2344 3.7656-2.2422 2.5-3.3594 5.9531-3.3594 10.359 0 4.3867 1.1172 7.8359 3.3594 10.344 2.25 2.5 5.3281 3.75 9.2344 3.75 2.1875 0 4.2656-0.32031 6.2344-0.96875 1.9766-0.64453 3.9844-1.6602 6.0156-3.0469z"/>
  </symbol>
  <symbol id="f" overflow="visible">
   <path d="m16.031-40.953v9.0625h10.516v7.2812h-10.516v13.531c0 1.4805 0.28906 2.4805 0.875 3 0.59375 0.52344 1.7656 0.78125 3.5156 0.78125h5.2344v7.2969h-8.7344c-4.0312 0-6.8867-0.83594-8.5625-2.5156-1.6797-1.6875-2.5156-4.5391-2.5156-8.5625v-13.531h-5.0781v-7.2812h5.0781v-9.0625z"/>
  </symbol>
  <symbol id="e" overflow="visible">
   <path d="m26.594-27.234v-17.078h10.266v44.312h-10.266v-4.6094c-1.3984 1.875-2.9453 3.25-4.6406 4.125-1.6875 0.875-3.6406 1.3125-5.8594 1.3125-3.9297 0-7.1562-1.5625-9.6875-4.6875-2.5234-3.125-3.7812-7.1445-3.7812-12.062 0-4.9141 1.2578-8.9375 3.7812-12.062 2.5312-3.125 5.7578-4.6875 9.6875-4.6875 2.1953 0 4.1445 0.44531 5.8438 1.3281 1.707 0.88672 3.2578 2.2578 4.6562 4.1094zm-6.7188 20.656c2.1875 0 3.8516-0.79688 5-2.3906 1.1445-1.5938 1.7188-3.9102 1.7188-6.9531 0-3.0391-0.57422-5.3594-1.7188-6.9531-1.1484-1.5938-2.8125-2.3906-5-2.3906-2.168 0-3.8242 0.79688-4.9688 2.3906-1.1484 1.5938-1.7188 3.9141-1.7188 6.9531 0 3.043 0.57031 5.3594 1.7188 6.9531 1.1445 1.5938 2.8008 2.3906 4.9688 2.3906z"/>
  </symbol>
  <symbol id="d" overflow="visible">
   <path d="m21.875-6.5781c2.1758 0 3.8359-0.79688 4.9844-2.3906 1.1562-1.5938 1.7344-3.9102 1.7344-6.9531 0-3.0391-0.57812-5.3594-1.7344-6.9531-1.1484-1.5938-2.8086-2.3906-4.9844-2.3906-2.1875 0-3.8672 0.80469-5.0312 2.4062-1.168 1.6055-1.75 3.918-1.75 6.9375 0 3.0234 0.58203 5.3359 1.75 6.9375 1.1641 1.6055 2.8438 2.4062 5.0312 2.4062zm-6.7812-20.656c1.4062-1.8516 2.9609-3.2227 4.6719-4.1094 1.707-0.88281 3.6719-1.3281 5.8906-1.3281 3.9375 0 7.1641 1.5625 9.6875 4.6875 2.5195 3.125 3.7812 7.1484 3.7812 12.062 0 4.918-1.2617 8.9375-3.7812 12.062-2.5234 3.125-5.75 4.6875-9.6875 4.6875-2.2188 0-4.1836-0.44531-5.8906-1.3281-1.7109-0.88281-3.2656-2.2539-4.6719-4.1094v4.6094h-10.188v-44.312h10.188z"/>
  </symbol>
  <symbol id="c" overflow="visible">
   <path d="m16.312-34.234v25.953h3.9375c4.4766 0 7.8984-1.1094 10.266-3.3281 2.3633-2.2266 3.5469-5.457 3.5469-9.6875 0-4.2188-1.1797-7.4258-3.5312-9.625-2.3555-2.207-5.7812-3.3125-10.281-3.3125zm-10.953-8.2812h11.562c6.4453 0 11.25 0.46094 14.406 1.375 3.1641 0.91797 5.8789 2.4805 8.1406 4.6875 2 1.918 3.4844 4.1328 4.4531 6.6406 0.96875 2.5 1.4531 5.3398 1.4531 8.5156 0 3.2109-0.48438 6.0742-1.4531 8.5938-0.96875 2.5117-2.4531 4.7266-4.4531 6.6406-2.2734 2.1992-5.0078 3.7617-8.2031 4.6875-3.1875 0.91797-7.9688 1.375-14.344 1.375h-11.562z"/>
  </symbol>
  <symbol id="b" overflow="visible">
   <path d="m4.9062-31.891h10.188v31.891h-10.188zm0-12.422h10.188v8.3125h-10.188z"/>
  </symbol>
  <symbol id="a" overflow="visible">
   <path d="m5.3594-42.516h10.953v15.516l15.812-15.516h12.734l-20.484 20.125 22.594 22.391h-13.734l-16.922-16.75v16.75h-10.953z"/>
  </symbol>
 </defs>
 <g>
  <path d="m618.33 268.43c0 66.039-6.8633 118.56-6.8633 118.56-2.9453 28.758-26.707 57.379-52.945 63.352 0 0-93.262 26.223-208.56 27.906-115.24-1.7812-208.49-28-208.49-28-26.238-5.9727-50-34.594-52.945-63.352 0 0-6.8633-52.523-6.8633-118.57 0-66.039 6.8633-118.56 6.8633-118.56 2.9453-28.758 26.707-57.379 52.945-63.355 0 0 93.246-26.215 208.49-27.996 115.3 1.6797 208.56 27.902 208.56 27.902 26.238 5.9727 50 34.598 52.945 63.352 0 0 6.8633 52.523 6.8633 118.76zm-44.004-114.95c-1.3633-13.32-13.98-28.453-24.094-30.754l-1.8164-0.46094c-0.53125-0.14844-1.7969-0.49219-3.7617-1-3.418-0.88672-7.457-1.8828-12.074-2.9609-13.355-3.125-28.574-6.2656-45.336-9.1992-44.309-7.7617-90.953-12.672-136.7-13.355-48.238 0.74609-96.16 5.9492-141.44 14.082-15.82 2.8438-30.145 5.8438-42.691 8.8008-7.375 1.7383-12.414 3.0469-14.832 3.7266l-1.8164 0.46094c-10.113 2.3047-22.73 17.434-24.215 31.789-0.17969 1.375-0.52344 4.2305-0.97266 8.4141-0.76953 7.1094-1.543 15.246-2.2656 24.254-2.0703 25.793-3.3125 53.234-3.3125 81.059s1.2422 55.27 3.3125 81.062c0.72266 9.0039 1.4961 17.141 2.2656 24.254 0.44922 4.1836 0.79297 7.0391 1.0938 9.4453 1.3633 13.324 13.98 28.453 24.094 30.754l1.8164 0.46484c2.418 0.67969 7.457 1.9883 14.832 3.7266 12.547 2.957 26.871 5.957 42.691 8.7969 45.277 8.1367 93.199 13.34 140.32 14.082 46.871-0.68359 93.516-5.5938 137.82-13.352 16.762-2.9375 31.98-6.0742 45.336-9.1992 4.6172-1.082 8.6562-2.0781 12.074-2.9609 1.9648-0.50781 3.2305-0.85156 3.7617-1l1.8164-0.46484c10.113-2.3008 22.73-17.43 24.215-31.785 0.17969-1.375 0.52344-4.2305 0.97266-8.4141 0.76953-7.1133 1.543-15.246 2.2656-24.254 2.0703-25.793 3.3125-53.238 3.3125-81.059 0-27.91-1.2422-55.406-3.3125-81.23-0.72266-9.0156-1.4961-17.16-2.2656-24.273-0.44922-4.1875-0.79297-7.043-0.97266-8.4141zm-103.27 208.07c2.293 0 4.9531-1.6094 6.2461-4.1055 1.2969-2.4961 1.3867-5.1953 0.13672-7.7422l-66.707-135.5c-1.1797-2.3984-3.3398-3.957-5.7461-4.1797-2.3867-0.14844-4.7461 0.99219-6.2227 3.1406l-56.781 83.242c-1.7812 2.6133-5.0586 2.7188-7.1523 0.42578l-34.094-37.363c-2.8867-2.1016-6.6328-1.582-9.0195 1.2109l-68.023 87.074c-2 2.3516-2.5898 5.8633-1.4766 8.8789 1.1133 3.0195 3.7031 5.0469 6.5859 5.0469zm-213.14-129.09c15.625-3.9062 25.125-19.754 21.195-35.383-3.9062-15.625-19.73-25.102-35.352-21.195-15.625 3.9062-25.125 19.73-21.219 35.359 3.9062 15.625 19.754 25.125 35.375 21.219z" fill-rule="evenodd"/>
  <use x="70" y="735" xlink:href="#g"/>
  <use x="220.503906" y="735" xlink:href="#f"/>
  <use x="287.953125" y="735" xlink:href="#e"/>
  <use x="350.015625" y="735" xlink:href="#d"/>
  <use x="450.105469" y="735" xlink:href="#c"/>
  <use x="579.617188" y="735" xlink:href="#b"/>
  <use x="654.644531" y="735" xlink:href="#a"/>
 </g>
</svg>
