<?xml version="1.0" standalone="no"?>
<!DOCTYPE svg PUBLIC "-//W3C//DTD SVG 20010904//EN"
 "http://www.w3.org/TR/2001/REC-SVG-20010904/DTD/svg10.dtd">
<svg version="1.0" xmlns="http://www.w3.org/2000/svg"
 width="1400.000000pt" height="1400.000000pt" viewBox="0 0 1400.000000 1400.000000"
 preserveAspectRatio="xMidYMid meet">
<metadata>
Created by potrace 1.14, written by Peter Selinger 2001-2017
</metadata>
<g transform="translate(0.000000,1400.000000) scale(0.100000,-0.100000)"
fill="#000000" stroke="none">
<path d="M4016 13813 c-38 -10 -110 -56 -142 -91 -29 -32 -85 -128 -90 -157
-2 -5 -7 -32 -12 -59 -11 -52 -9 -163 3 -211 6 -24 91 -243 140 -360 5 -11 9
-22 10 -25 1 -3 4 -12 8 -20 27 -67 172 -497 183 -542 1 -5 3 -10 4 -13 1 -3
3 -8 4 -12 3 -15 68 -248 74 -263 3 -8 6 -20 7 -26 2 -7 15 -61 30 -120 44
-179 67 -281 91 -394 16 -78 56 -295 59 -327 3 -21 7 -49 10 -63 12 -57 15
-77 20 -115 2 -22 9 -71 15 -110 6 -38 13 -92 16 -120 21 -222 102 -437 219
-583 42 -53 140 -144 189 -177 67 -43 185 -92 237 -98 19 -2 39 -6 44 -8 12
-6 3730 -2 3760 4 82 16 234 79 243 99 2 5 8 8 13 8 11 0 45 29 113 95 71 68
138 165 185 267 43 91 95 263 86 278 -4 6 -2 10 2 10 5 0 9 10 10 23 1 32 12
129 16 152 3 11 8 45 11 76 4 31 9 67 11 80 3 13 7 41 10 64 3 22 8 51 10 65
3 14 7 39 10 55 3 17 7 40 9 51 2 12 7 39 10 60 6 37 10 61 21 112 3 12 7 32
10 45 11 53 25 127 30 162 2 11 4 20 5 20 1 0 3 7 5 16 3 18 51 218 62 259 3
14 7 30 8 35 2 6 15 55 30 110 15 55 29 107 31 115 25 111 215 676 261 779 8
18 16 39 17 45 1 6 10 28 19 50 9 21 17 40 17 43 0 2 11 28 24 56 40 88 58
149 62 216 3 35 7 67 9 72 3 4 1 10 -5 14 -6 4 -8 10 -5 14 8 13 -23 117 -50
172 -30 58 -92 122 -150 152 l-40 22 -2980 1 c-1639 1 -2989 0 -2999 -3z"/>
<path d="M5035 8951 c-80 -25 -132 -58 -200 -125 -70 -71 -133 -185 -162 -296
-18 -71 -22 -239 -9 -450 4 -63 9 -197 10 -298 2 -101 6 -186 10 -189 3 -3 1
-11 -4 -18 -6 -7 -6 -23 -1 -41 4 -16 5 -38 1 -49 -4 -11 -4 -32 1 -47 4 -16
4 -28 0 -28 -4 0 -5 -21 -1 -48 3 -26 3 -59 0 -72 -4 -14 -3 -40 1 -58 4 -17
3 -35 -2 -38 -5 -3 -6 -10 -2 -17 4 -6 6 -47 5 -92 -1 -44 -2 -84 -3 -90 0 -5
2 -29 4 -53 2 -24 0 -45 -5 -48 -5 -3 -6 -10 -2 -15 3 -5 5 -71 4 -147 -1
-126 -1 -148 0 -184 1 -7 -1 -48 -2 -91 -2 -44 0 -81 5 -84 4 -2 4 -9 1 -15
-4 -6 -8 -72 -10 -147 -1 -75 -6 -197 -9 -271 -17 -347 -8 -433 58 -570 48
-99 52 -105 122 -175 49 -50 131 -104 168 -111 4 -1 8 -2 10 -4 15 -12 298
-14 1939 -16 1168 -1 1912 1 1935 7 21 6 43 11 48 12 84 23 207 130 266 232
40 69 76 172 86 248 8 61 7 173 -3 387 -4 85 -8 212 -8 282 -1 71 -4 128 -8
128 -4 0 -3 11 2 24 5 13 6 26 3 29 -8 9 -9 117 0 117 4 0 4 8 0 18 -10 19
-10 1019 0 1028 3 3 2 16 -3 28 -4 13 -4 29 0 36 5 8 5 21 0 31 -5 9 -7 19 -3
23 3 3 7 72 8 153 2 82 6 216 10 298 9 172 9 253 1 310 -34 237 -166 419 -356
491 -42 16 -178 18 -1950 19 -1696 1 -1910 -1 -1955 -14z"/>
<path d="M5137 4083 c-1 -1 -20 -4 -42 -7 -141 -18 -279 -93 -393 -214 -64
-67 -134 -167 -164 -232 -32 -68 -60 -135 -63 -150 -2 -8 -8 -35 -15 -59 -6
-25 -13 -56 -15 -70 -2 -14 -4 -26 -5 -26 -3 0 -7 -30 -14 -90 -3 -33 -8 -71
-11 -85 -2 -14 -6 -43 -9 -65 -8 -68 -17 -127 -32 -210 -8 -44 -16 -93 -18
-110 -2 -16 -6 -43 -9 -60 -8 -34 -18 -90 -22 -120 -2 -11 -8 -40 -14 -65 -7
-25 -14 -61 -17 -80 -2 -19 -9 -51 -14 -70 -5 -19 -11 -46 -13 -60 -3 -14 -10
-45 -17 -70 -7 -25 -13 -54 -15 -65 -1 -11 -12 -54 -23 -95 -11 -41 -23 -86
-26 -100 -6 -31 -75 -280 -83 -300 -3 -8 -7 -19 -9 -25 -9 -34 -54 -174 -62
-195 -5 -14 -10 -28 -11 -32 -1 -4 -4 -13 -6 -20 -3 -7 -20 -58 -39 -113 -19
-55 -47 -131 -61 -170 -15 -38 -34 -90 -42 -115 -9 -25 -20 -48 -25 -51 -6 -3
-9 -8 -8 -10 5 -10 -24 -89 -33 -89 -6 0 -7 -3 -4 -7 4 -3 3 -11 -2 -17 -5 -6
-21 -48 -35 -94 -22 -71 -25 -96 -22 -181 2 -53 8 -106 14 -117 5 -10 20 -43
33 -72 26 -60 94 -133 153 -165 l41 -22 2960 -3 c2151 -2 2974 0 3012 8 100
22 189 112 235 238 15 42 21 83 21 157 1 97 -6 134 -41 215 -9 19 -16 37 -17
40 -1 3 -7 19 -14 35 -8 17 -17 39 -21 50 -4 11 -12 31 -18 45 -5 14 -24 63
-42 110 -77 204 -111 302 -165 475 -62 200 -65 209 -70 231 -2 10 -9 35 -15
54 -6 19 -13 46 -16 60 -2 14 -7 32 -11 40 -3 8 -7 20 -8 25 -2 6 -13 51 -25
100 -12 49 -23 94 -24 100 -6 32 -39 172 -44 185 -3 8 -6 22 -8 30 -4 19 -17
84 -19 90 -2 8 -17 105 -17 107 1 2 -4 17 -9 35 -6 18 -12 51 -14 73 -3 22 -7
51 -10 65 -7 28 -21 114 -30 180 -4 25 -9 56 -11 70 -6 34 -10 64 -19 140 -11
89 -11 89 -20 140 -4 25 -9 56 -10 70 -2 14 -10 50 -19 80 -92 340 -341 599
-619 646 -34 6 -3735 13 -3740 7z"/>
</g>
</svg>
