<?xml version="1.0" encoding="UTF-8" standalone="no" ?>
<!DOCTYPE svg PUBLIC "-//W3C//DTD SVG 1.1//EN" "http://www.w3.org/Graphics/SVG/1.1/DTD/svg11.dtd">
<svg xmlns="http://www.w3.org/2000/svg" xmlns:xlink="http://www.w3.org/1999/xlink" version="1.1" width="192" height="192" viewBox="0 0 192 192" xml:space="preserve">
<desc>Created with Fabric.js 4.6.0</desc>
<defs>
</defs>
<g transform="matrix(0.62 0 0 0.54 99.34 96)" id="Trb3R2WY8GhNfwqVFTWBz"  >
<path style="stroke: none; stroke-width: 1; stroke-dasharray: none; stroke-linecap: butt; stroke-dashoffset: 0; stroke-linejoin: miter; stroke-miterlimit: 4; fill: rgb(0,0,0); fill-rule: nonzero; opacity: 1;" vector-effect="non-scaling-stroke"  transform=" translate(-96, -96)" d="M 191.99631 9.62713 L 191.99631 182.37317 C 192.00015 184.63493 191.43759 186.82372999999998 190.40270999999998 188.55567 C 189.36590999999999 190.28942999999998 187.92782999999997 191.45678999999998 186.33807 191.85231 C 184.74830999999998 192.24783 183.10862999999998 191.84270999999998 181.71278999999998 190.71183 C 181.28079 190.33742999999998 134.79808999999997 153.58247 95.99913999999998 153.58247 C 57.12721999999998 153.58247 10.723249999999979 190.33742999999998 10.285489999999982 190.70415 C 8.887729999999982 191.83503 7.249969999999982 192.23631 5.6602099999999815 191.84079 C 4.072369999999982 191.44911 2.6323699999999817 190.28558999999998 1.5974899999999819 188.54991 C 0.5626099999999818 186.81807 -0.0037900000000181677 184.62927000000002 0.00004999999998189786 182.37125 L 0.00004999999998189786 9.62521000000001 C -0.0057100000000181025 7.365370000000009 0.5606899999999819 5.1746500000000095 1.595569999999982 3.4427100000000097 C 2.630449999999982 1.7089500000000097 4.070449999999982 0.5415900000000096 5.662129999999982 0.1460700000000097 C 7.249969999999982 -0.24560999999999028 8.889649999999982 0.1556700000000097 10.287409999999982 1.2865500000000096 C 10.717489999999982 1.6609500000000097 57.20210999999998 38.41591000000001 96.00105999999998 38.41591000000001 C 134.80002 38.41591000000001 181.28270999999998 1.660950000000014 181.71470999999997 1.294230000000013 C 183.11246999999997 0.16719000000001305 184.75022999999996 -0.23600999999998695 186.33998999999997 0.157590000000013 C 187.92974999999998 0.549270000000013 189.36782999999997 1.716630000000013 190.40270999999998 3.448470000000013 C 191.43758999999997 5.176470000000013 192.00399 7.369110000000013 192.00015 9.627130000000012 z" stroke-linecap="round" />
</g>
<g transform="matrix(1.33 0 0 1.15 99.34 96)" id="KS5TaPyHp3wwKN0Hfnipf"  >
<path style="stroke: none; stroke-width: 1; stroke-dasharray: none; stroke-linecap: butt; stroke-dashoffset: 0; stroke-linejoin: miter; stroke-miterlimit: 4; fill: rgb(255,255,255); fill-rule: nonzero; opacity: 1;" vector-effect="non-scaling-stroke"  transform=" translate(-40, -40)" d="M 60.214 56.561 L 60.214 46.09 L 19.786 46.09 L 19.786 56.56 L 0 40 L 19.786 23.439 L 19.786 33.938 L 60.214 33.938 L 60.214 23.439 L 80 40 L 60.214 56.561 z" stroke-linecap="round" />
</g>
</svg>