<?xml version="1.0" encoding="iso-8859-1"?>
<!-- Generator: Adobe Illustrator 16.0.0, SVG Export Plug-In . SVG Version: 6.00 Build 0)  -->
<!DOCTYPE svg PUBLIC "-//W3C//DTD SVG 1.1//EN" "http://www.w3.org/Graphics/SVG/1.1/DTD/svg11.dtd">
<svg version="1.1" id="Capa_1" xmlns="http://www.w3.org/2000/svg" xmlns:xlink="http://www.w3.org/1999/xlink" x="0px" y="0px"
	 width="375.914px" height="375.914px" viewBox="0 0 375.914 375.914" style="enable-background:new 0 0 375.914 375.914;"
	 xml:space="preserve">
<g>
	<g>
		<path d="M241.791,243.096c-4.525,0-8.467,2.827-10.566,7.014v-0.637c0-8.77-6.221-15.877-13.896-15.877
			c-5.288,0-9.883,3.373-12.231,8.338c-2.349-4.965-6.946-8.338-12.233-8.338c-4.23,0-8.017,2.168-10.566,5.579v-49.243
			c0-8.77-6.222-15.877-13.897-15.877c-7.675,0-13.896,7.108-13.896,15.877v96.816l-6.475-13.496
			c-2.525-5.266-7.284-8.255-12.195-8.255c-2.259,0-4.552,0.634-6.673,1.958c-6.727,4.22-9.195,13.865-5.5,21.554
			c0,0,32.409,68.042,37.408,75.376c4.806,7.049,10.732,12.029,18.955,12.029h48.251c14.188,0,25.697-13.629,25.697-30.432v-88.476
			C253.97,249.324,248.517,243.096,241.791,243.096z"/>
		<path d="M281.949,0H93.964c-11.672,0-21.16,9.492-21.16,21.162v308.975c0,11.666,9.488,21.162,21.16,21.162h34.872
			c0,0,6.748,0,4.241-5.713c-3.994-9.104-10.474-22.357-15.285-31.863c-2.291-4.527-8.126-4.343-8.126-4.343H96.011
			c-2.76,0-5.022-2.31-5.022-5.133V47.503c0-2.823,2.263-5.132,5.022-5.132h183.896c2.76,0,5.021,2.309,5.021,5.132v256.744
			c0,2.823-2.262,5.133-5.021,5.133h-5.236c0,0-6.526,0.147-6.526,8.005c0,6.477-0.025,25.525-0.025,25.908
			c0,8.005,7.554,8.005,7.554,8.005h6.278c11.664,0,21.159-9.495,21.159-21.161V21.163C303.109,9.492,293.613,0,281.949,0z
			 M211.144,29.605H164.77c-2.217,0-4.008-1.794-4.008-4.009c0-2.218,1.791-4.012,4.008-4.012h46.375c2.213,0,4.01,1.794,4.01,4.012
			C215.154,27.811,213.357,29.605,211.144,29.605z"/>
	</g>
</g>
<g>
</g>
<g>
</g>
<g>
</g>
<g>
</g>
<g>
</g>
<g>
</g>
<g>
</g>
<g>
</g>
<g>
</g>
<g>
</g>
<g>
</g>
<g>
</g>
<g>
</g>
<g>
</g>
<g>
</g>
</svg>
